<svg id="visual" viewBox="0 0 900 600" width="900" height="600" xmlns="http://www.w3.org/2000/svg" xmlns:xlink="http://www.w3.org/1999/xlink" version="1.1"><path d="M0 234L37.5 267C75 300 150 366 225 386.3C300 406.7 375 381.3 450 365.3C525 349.3 600 342.7 675 349.8C750 357 825 378 862.5 388.5L900 399L900 601L862.5 601C825 601 750 601 675 601C600 601 525 601 450 601C375 601 300 601 225 601C150 601 75 601 37.5 601L0 601Z" fill="#7871ff"></path><path d="M0 367L37.5 386.2C75 405.3 150 443.7 225 461.5C300 479.3 375 476.7 450 474C525 471.3 600 468.7 675 457C750 445.3 825 424.7 862.5 414.3L900 404L900 601L862.5 601C825 601 750 601 675 601C600 601 525 601 450 601C375 601 300 601 225 601C150 601 75 601 37.5 601L0 601Z" fill="#473dc2"></path><path d="M0 514L37.5 505C75 496 150 478 225 484.8C300 491.7 375 523.3 450 518.8C525 514.3 600 473.7 675 463.3C750 453 825 473 862.5 483L900 493L900 601L862.5 601C825 601 750 601 675 601C600 601 525 601 450 601C375 601 300 601 225 601C150 601 75 601 37.5 601L0 601Z" fill="#020887"></path></svg>