<svg id="visual" viewBox="0 0 900 600" width="900" height="600" xmlns="http://www.w3.org/2000/svg" xmlns:xlink="http://www.w3.org/1999/xlink" version="1.1"><path d="M0 43L37.5 47C75 51 150 59 225 58C300 57 375 47 450 42C525 37 600 37 675 30.8C750 24.7 825 12.3 862.5 6.2L900 0L900 0L862.5 0C825 0 750 0 675 0C600 0 525 0 450 0C375 0 300 0 225 0C150 0 75 0 37.5 0L0 0Z" fill="#222823"></path><path d="M0 61L37.5 68C75 75 150 89 225 96C300 103 375 103 450 103C525 103 600 103 675 94C750 85 825 67 862.5 58L900 49L900 0L862.5 5.8C825 11.7 750 23.3 675 29.2C600 35 525 35 450 40C375 45 300 55 225 56C150 57 75 49 37.5 45L0 41Z" fill="#242a25"></path><path d="M0 127L37.5 140C75 153 150 179 225 175C300 171 375 137 450 139C525 141 600 179 675 174C750 169 825 121 862.5 97L900 73L900 47L862.5 56C825 65 750 83 675 92C600 101 525 101 450 101C375 101 300 101 225 94C150 87 75 73 37.5 66L0 59Z" fill="#252b26"></path><path d="M0 211L37.5 223C75 235 150 259 225 245C300 231 375 179 450 175C525 171 600 215 675 209C750 203 825 147 862.5 119L900 91L900 71L862.5 95C825 119 750 167 675 172C600 177 525 139 450 137C375 135 300 169 225 173C150 177 75 151 37.5 138L0 125Z" fill="#272d28"></path><path d="M0 235L37.5 245C75 255 150 275 225 257C300 239 375 183 450 177C525 171 600 215 675 219C750 223 825 187 862.5 169L900 151L900 89L862.5 117C825 145 750 201 675 207C600 213 525 169 450 173C375 177 300 229 225 243C150 257 75 233 37.5 221L0 209Z" fill="#282e29"></path><path d="M0 265L37.5 275C75 285 150 305 225 311C300 317 375 309 450 309C525 309 600 317 675 331C750 345 825 365 862.5 375L900 385L900 149L862.5 167C825 185 750 221 675 217C600 213 525 169 450 175C375 181 300 237 225 255C150 273 75 253 37.5 243L0 233Z" fill="#2a302b"></path><path d="M0 301L37.5 313C75 325 150 349 225 349C300 349 375 325 450 325C525 325 600 349 675 372C750 395 825 417 862.5 428L900 439L900 383L862.5 373C825 363 750 343 675 329C600 315 525 307 450 307C375 307 300 315 225 309C150 303 75 283 37.5 273L0 263Z" fill="#2c322d"></path><path d="M0 385L37.5 384C75 383 150 381 225 379C300 377 375 375 450 389C525 403 600 433 675 447C750 461 825 459 862.5 458L900 457L900 437L862.5 426C825 415 750 393 675 370C600 347 525 323 450 323C375 323 300 347 225 347C150 347 75 323 37.5 311L0 299Z" fill="#2d332e"></path><path d="M0 577L37.5 579C75 581 150 585 225 586C300 587 375 585 450 586C525 587 600 591 675 588C750 585 825 575 862.5 570L900 565L900 455L862.5 456C825 457 750 459 675 445C600 431 525 401 450 387C375 373 300 375 225 377C150 379 75 381 37.5 382L0 383Z" fill="#2f3530"></path><path d="M0 601L37.5 601C75 601 150 601 225 601C300 601 375 601 450 601C525 601 600 601 675 601C750 601 825 601 862.5 601L900 601L900 563L862.5 568C825 573 750 583 675 586C600 589 525 585 450 584C375 583 300 585 225 584C150 583 75 579 37.5 577L0 575Z" fill="#313732"></path></svg>