<svg id="visual" viewBox="0 0 900 600" width="900" height="600" xmlns="http://www.w3.org/2000/svg" xmlns:xlink="http://www.w3.org/1999/xlink" version="1.1"><path d="M0 296L37.5 289.2C75 282.3 150 268.7 225 243C300 217.3 375 179.7 450 176.3C525 173 600 204 675 230C750 256 825 277 862.5 287.5L900 298L900 0L862.5 0C825 0 750 0 675 0C600 0 525 0 450 0C375 0 300 0 225 0C150 0 75 0 37.5 0L0 0Z" fill="#7871ff"></path><path d="M0 210L37.5 208.5C75 207 150 204 225 206.8C300 209.7 375 218.3 450 211.7C525 205 600 183 675 164.8C750 146.7 825 132.3 862.5 125.2L900 118L900 0L862.5 0C825 0 750 0 675 0C600 0 525 0 450 0C375 0 300 0 225 0C150 0 75 0 37.5 0L0 0Z" fill="#584ed6"></path><path d="M0 214L37.5 205.5C75 197 150 180 225 154.3C300 128.7 375 94.3 450 92.5C525 90.7 600 121.3 675 126.3C750 131.3 825 110.7 862.5 100.3L900 90L900 0L862.5 0C825 0 750 0 675 0C600 0 525 0 450 0C375 0 300 0 225 0C150 0 75 0 37.5 0L0 0Z" fill="#352cae"></path><path d="M0 130L37.5 121.7C75 113.3 150 96.7 225 90.7C300 84.7 375 89.3 450 81.8C525 74.3 600 54.7 675 48.2C750 41.7 825 48.3 862.5 51.7L900 55L900 0L862.5 0C825 0 750 0 675 0C600 0 525 0 450 0C375 0 300 0 225 0C150 0 75 0 37.5 0L0 0Z" fill="#020887"></path></svg>