<svg id="visual" viewBox="0 0 900 600" width="900" height="600" xmlns="http://www.w3.org/2000/svg" xmlns:xlink="http://www.w3.org/1999/xlink" version="1.1"><path d="M0 91L37.5 88C75 85 150 79 225 67C300 55 375 37 450 45C525 53 600 87 675 92C750 97 825 73 862.5 61L900 49L900 0L862.5 0C825 0 750 0 675 0C600 0 525 0 450 0C375 0 300 0 225 0C150 0 75 0 37.5 0L0 0Z" fill="#222823"></path><path d="M0 175L37.5 179C75 183 150 191 225 184C300 177 375 155 450 147C525 139 600 145 675 151C750 157 825 163 862.5 166L900 169L900 47L862.5 59C825 71 750 95 675 90C600 85 525 51 450 43C375 35 300 53 225 65C150 77 75 83 37.5 86L0 89Z" fill="#252b26"></path><path d="M0 475L37.5 441C75 407 150 339 225 315C300 291 375 311 450 307C525 303 600 275 675 257C750 239 825 231 862.5 227L900 223L900 167L862.5 164C825 161 750 155 675 149C600 143 525 137 450 145C375 153 300 175 225 182C150 189 75 181 37.5 177L0 173Z" fill="#282e29"></path><path d="M0 535L37.5 507C75 479 150 423 225 408C300 393 375 419 450 409C525 399 600 353 675 332C750 311 825 315 862.5 317L900 319L900 221L862.5 225C825 229 750 237 675 255C600 273 525 301 450 305C375 309 300 289 225 313C150 337 75 405 37.5 439L0 473Z" fill="#2b312c"></path><path d="M0 595L37.5 566C75 537 150 479 225 477C300 475 375 529 450 530C525 531 600 479 675 456C750 433 825 439 862.5 442L900 445L900 317L862.5 315C825 313 750 309 675 330C600 351 525 397 450 407C375 417 300 391 225 406C150 421 75 477 37.5 505L0 533Z" fill="#2e342f"></path><path d="M0 601L37.5 601C75 601 150 601 225 601C300 601 375 601 450 601C525 601 600 601 675 601C750 601 825 601 862.5 601L900 601L900 443L862.5 440C825 437 750 431 675 454C600 477 525 529 450 528C375 527 300 473 225 475C150 477 75 535 37.5 564L0 593Z" fill="#313732"></path></svg>